<svg width="33" height="27" viewBox="0 0 33 27" fill="none" xmlns="http://www.w3.org/2000/svg">
<path d="M11.376 26.504C9.336 26.504 7.356 26.252 5.436 25.748C3.516 25.244 1.956 24.572 0.756 23.732L3.096 18.476C4.224 19.22 5.532 19.82 7.02 20.276C8.508 20.732 9.972 20.96 11.412 20.96C14.148 20.96 15.516 20.276 15.516 18.908C15.516 18.188 15.12 17.66 14.328 17.324C13.56 16.964 12.312 16.592 10.584 16.208C8.688 15.8 7.104 15.368 5.832 14.912C4.56 14.432 3.468 13.676 2.556 12.644C1.644 11.612 1.188 10.22 1.188 8.468C1.188 6.932 1.608 5.552 2.448 4.328C3.288 3.08 4.536 2.096 6.192 1.376C7.872 0.655999 9.924 0.295998 12.348 0.295998C14.004 0.295998 15.636 0.487999 17.244 0.872C18.852 1.232 20.268 1.772 21.492 2.492L19.296 7.784C16.896 6.488 14.568 5.84 12.312 5.84C10.896 5.84 9.864 6.056 9.216 6.488C8.568 6.896 8.244 7.436 8.244 8.108C8.244 8.78 8.628 9.284 9.396 9.62C10.164 9.956 11.4 10.304 13.104 10.664C15.024 11.072 16.608 11.516 17.856 11.996C19.128 12.452 20.22 13.196 21.132 14.228C22.068 15.236 22.536 16.616 22.536 18.368C22.536 19.88 22.116 21.248 21.276 22.472C20.436 23.696 19.176 24.68 17.496 25.424C15.816 26.144 13.776 26.504 11.376 26.504Z" fill="black"/>
<path d="M28.3846 26.324C27.2326 26.324 26.2606 25.94 25.4686 25.172C24.6766 24.404 24.2806 23.432 24.2806 22.256C24.2806 21.056 24.6646 20.084 25.4326 19.34C26.2246 18.596 27.2086 18.224 28.3846 18.224C29.5846 18.224 30.5686 18.596 31.3366 19.34C32.1046 20.084 32.4886 21.056 32.4886 22.256C32.4886 23.432 32.0926 24.404 31.3006 25.172C30.5326 25.94 29.5606 26.324 28.3846 26.324Z" fill="#686677"/>
</svg>
